<mxfile host="drawio-plugin" modified="2022-11-07T04:33:52.593Z" agent="5.0 (Windows NT 6.2; Win64; x64) AppleWebKit/537.36 (KHTML, like Gecko) Chrome/98.0.4758.102 Safari/537.36" etag="qwAFmxh3dYyLTKNxozZs" version="15.5.4" type="embed"><diagram id="HTirJWirQs5WPqJ1zvMP" name="Page-1"><mxGraphModel dx="488" dy="520" grid="1" gridSize="10" guides="1" tooltips="1" connect="1" arrows="1" fold="1" page="1" pageScale="1" pageWidth="850" pageHeight="1100" math="0" shadow="0"><root><mxCell id="0"/><mxCell id="1" parent="0"/><mxCell id="15" value="HandTileController" style="swimlane;fontStyle=1;align=center;verticalAlign=top;childLayout=stackLayout;horizontal=1;startSize=26;horizontalStack=0;resizeParent=1;resizeParentMax=0;resizeLast=0;collapsible=1;marginBottom=0;" parent="1" vertex="1"><mxGeometry x="100" y="290" width="210" height="206" as="geometry"/></mxCell><mxCell id="16" value="- selectStrategy: SelectionStrategy" style="text;strokeColor=none;fillColor=none;align=left;verticalAlign=top;spacingLeft=4;spacingRight=4;overflow=hidden;rotatable=0;points=[[0,0.5],[1,0.5]];portConstraint=eastwest;fontStyle=4" parent="15" vertex="1"><mxGeometry y="26" width="210" height="28" as="geometry"/></mxCell><mxCell id="78" value="- letter: Letter" style="text;strokeColor=none;fillColor=none;align=left;verticalAlign=top;spacingLeft=4;spacingRight=4;overflow=hidden;rotatable=0;points=[[0,0.5],[1,0.5]];portConstraint=eastwest;" vertex="1" parent="15"><mxGeometry y="54" width="210" height="26" as="geometry"/></mxCell><mxCell id="17" value="" style="line;strokeWidth=1;fillColor=none;align=left;verticalAlign=middle;spacingTop=-1;spacingLeft=3;spacingRight=3;rotatable=0;labelPosition=right;points=[];portConstraint=eastwest;" parent="15" vertex="1"><mxGeometry y="80" width="210" height="8" as="geometry"/></mxCell><mxCell id="18" value="+ HandController(): void&#10;+ mouseClicked(MouseEvent)&#10;+ mouseExited(MouseEvent)&#10;+ mouseEntered(MouseEvent)&#10;+ update(ScrabbleModel): void&#10;- select(): void&#10;- highlight(): void&#10;- setSelectionStrategy(): void" style="text;strokeColor=none;fillColor=none;align=left;verticalAlign=top;spacingLeft=4;spacingRight=4;overflow=hidden;rotatable=0;points=[[0,0.5],[1,0.5]];portConstraint=eastwest;" parent="15" vertex="1"><mxGeometry y="88" width="210" height="118" as="geometry"/></mxCell><mxCell id="30" value="&lt;&lt;interface&gt;&gt;&#10;SelectionStrategy" style="swimlane;fontStyle=1;childLayout=stackLayout;horizontal=1;startSize=30;fillColor=none;horizontalStack=0;resizeParent=1;resizeParentMax=0;resizeLast=0;collapsible=1;marginBottom=0;" parent="1" vertex="1"><mxGeometry x="425" y="342" width="180" height="70" as="geometry"/></mxCell><mxCell id="31" value="+ select(): void&#10;" style="text;strokeColor=none;fillColor=none;align=left;verticalAlign=top;spacingLeft=4;spacingRight=4;overflow=hidden;rotatable=0;points=[[0,0.5],[1,0.5]];portConstraint=eastwest;fontStyle=0" parent="30" vertex="1"><mxGeometry y="30" width="180" height="40" as="geometry"/></mxCell><mxCell id="32" value="PlaceSelection" style="swimlane;fontStyle=1;align=center;verticalAlign=top;childLayout=stackLayout;horizontal=1;startSize=26;horizontalStack=0;resizeParent=1;resizeParentMax=0;resizeLast=0;collapsible=1;marginBottom=0;" parent="1" vertex="1"><mxGeometry x="280" y="500" width="210" height="100" as="geometry"/></mxCell><mxCell id="33" value="- selected: Letter" style="text;strokeColor=none;fillColor=none;align=left;verticalAlign=top;spacingLeft=4;spacingRight=4;overflow=hidden;rotatable=0;points=[[0,0.5],[1,0.5]];portConstraint=eastwest;fontStyle=4" parent="32" vertex="1"><mxGeometry y="26" width="210" height="26" as="geometry"/></mxCell><mxCell id="34" value="" style="line;strokeWidth=1;fillColor=none;align=left;verticalAlign=middle;spacingTop=-1;spacingLeft=3;spacingRight=3;rotatable=0;labelPosition=right;points=[];portConstraint=eastwest;" parent="32" vertex="1"><mxGeometry y="52" width="210" height="8" as="geometry"/></mxCell><mxCell id="35" value="+ PlaceSelection(): void&#10;+ select(): void " style="text;strokeColor=none;fillColor=none;align=left;verticalAlign=top;spacingLeft=4;spacingRight=4;overflow=hidden;rotatable=0;points=[[0,0.5],[1,0.5]];portConstraint=eastwest;" parent="32" vertex="1"><mxGeometry y="60" width="210" height="40" as="geometry"/></mxCell><mxCell id="36" value="DiscardSelection" style="swimlane;fontStyle=1;align=center;verticalAlign=top;childLayout=stackLayout;horizontal=1;startSize=26;horizontalStack=0;resizeParent=1;resizeParentMax=0;resizeLast=0;collapsible=1;marginBottom=0;" parent="1" vertex="1"><mxGeometry x="530" y="500" width="210" height="100" as="geometry"/></mxCell><mxCell id="37" value="- selected: Letter" style="text;strokeColor=none;fillColor=none;align=left;verticalAlign=top;spacingLeft=4;spacingRight=4;overflow=hidden;rotatable=0;points=[[0,0.5],[1,0.5]];portConstraint=eastwest;fontStyle=0" parent="36" vertex="1"><mxGeometry y="26" width="210" height="26" as="geometry"/></mxCell><mxCell id="38" value="" style="line;strokeWidth=1;fillColor=none;align=left;verticalAlign=middle;spacingTop=-1;spacingLeft=3;spacingRight=3;rotatable=0;labelPosition=right;points=[];portConstraint=eastwest;" parent="36" vertex="1"><mxGeometry y="52" width="210" height="8" as="geometry"/></mxCell><mxCell id="39" value="+ DiscardSelection(): void&#10;+ select(): void " style="text;strokeColor=none;fillColor=none;align=left;verticalAlign=top;spacingLeft=4;spacingRight=4;overflow=hidden;rotatable=0;points=[[0,0.5],[1,0.5]];portConstraint=eastwest;" parent="36" vertex="1"><mxGeometry y="60" width="210" height="40" as="geometry"/></mxCell><mxCell id="40" value="&lt;&lt;interface&gt;&gt;&#10;MouseListener" style="swimlane;fontStyle=1;childLayout=stackLayout;horizontal=1;startSize=30;fillColor=none;horizontalStack=0;resizeParent=1;resizeParentMax=0;resizeLast=0;collapsible=1;marginBottom=0;" parent="1" vertex="1"><mxGeometry x="335" y="200" width="180" height="80" as="geometry"/></mxCell><mxCell id="41" value="+ mouseClicked(MouseEvent)&#10;+ mouseExited(MouseEvent)&#10;+ mouseEntered(MouseEvent)" style="text;strokeColor=none;fillColor=none;align=left;verticalAlign=top;spacingLeft=4;spacingRight=4;overflow=hidden;rotatable=0;points=[[0,0.5],[1,0.5]];portConstraint=eastwest;fontStyle=0" parent="40" vertex="1"><mxGeometry y="30" width="180" height="50" as="geometry"/></mxCell><mxCell id="42" value="" style="endArrow=block;dashed=1;endFill=0;endSize=12;html=1;rounded=0;" parent="1" source="32" target="30" edge="1"><mxGeometry width="160" relative="1" as="geometry"><mxPoint x="490" y="350" as="sourcePoint"/><mxPoint x="650" y="350" as="targetPoint"/></mxGeometry></mxCell><mxCell id="43" value="" style="endArrow=block;dashed=1;endFill=0;endSize=12;html=1;rounded=0;" parent="1" source="36" target="30" edge="1"><mxGeometry width="160" relative="1" as="geometry"><mxPoint x="509.5" y="380" as="sourcePoint"/><mxPoint x="563.1666666666667" y="310" as="targetPoint"/></mxGeometry></mxCell><mxCell id="44" value="" style="endArrow=block;dashed=1;endFill=0;endSize=12;html=1;rounded=0;" parent="1" source="15" target="40" edge="1"><mxGeometry width="160" relative="1" as="geometry"><mxPoint x="509.5" y="380" as="sourcePoint"/><mxPoint x="563.1666666666667" y="310" as="targetPoint"/></mxGeometry></mxCell><mxCell id="45" value="" style="endArrow=diamondThin;endFill=0;endSize=24;html=1;rounded=0;" parent="1" source="30" target="15" edge="1"><mxGeometry width="160" relative="1" as="geometry"><mxPoint x="350" y="350" as="sourcePoint"/><mxPoint x="510" y="350" as="targetPoint"/></mxGeometry></mxCell><mxCell id="49" value="" style="endArrow=diamondThin;endFill=0;endSize=24;html=1;rounded=0;" parent="1" source="50" target="61" edge="1"><mxGeometry width="160" relative="1" as="geometry"><mxPoint x="435" y="410.64516129032256" as="sourcePoint"/><mxPoint x="350" y="136.41176470588232" as="targetPoint"/></mxGeometry></mxCell><mxCell id="50" value="&lt;&lt;interface&gt;&gt;&#10;ScrabbleModelListener" style="swimlane;fontStyle=1;childLayout=stackLayout;horizontal=1;startSize=30;fillColor=none;horizontalStack=0;resizeParent=1;resizeParentMax=0;resizeLast=0;collapsible=1;marginBottom=0;" parent="1" vertex="1"><mxGeometry x="115" y="106" width="180" height="54" as="geometry"/></mxCell><mxCell id="51" value="+ update(ScrabbleEvent): void&#10;" style="text;strokeColor=none;fillColor=none;align=left;verticalAlign=top;spacingLeft=4;spacingRight=4;overflow=hidden;rotatable=0;points=[[0,0.5],[1,0.5]];portConstraint=eastwest;fontStyle=0" parent="50" vertex="1"><mxGeometry y="30" width="180" height="24" as="geometry"/></mxCell><mxCell id="52" value="" style="endArrow=block;dashed=1;endFill=0;endSize=12;html=1;rounded=0;" parent="1" source="15" target="53" edge="1"><mxGeometry width="160" relative="1" as="geometry"><mxPoint x="320" y="369.51612903225805" as="sourcePoint"/><mxPoint x="205" y="250" as="targetPoint"/></mxGeometry></mxCell><mxCell id="53" value="&lt;&lt;interface&gt;&gt;&#10;TurnActionListener" style="swimlane;fontStyle=1;childLayout=stackLayout;horizontal=1;startSize=30;fillColor=none;horizontalStack=0;resizeParent=1;resizeParentMax=0;resizeLast=0;collapsible=1;marginBottom=0;" parent="1" vertex="1"><mxGeometry x="115" y="200" width="180" height="54" as="geometry"/></mxCell><mxCell id="54" value="+ update(ScrabbleEvent): void&#10;" style="text;strokeColor=none;fillColor=none;align=left;verticalAlign=top;spacingLeft=4;spacingRight=4;overflow=hidden;rotatable=0;points=[[0,0.5],[1,0.5]];portConstraint=eastwest;fontStyle=0" parent="53" vertex="1"><mxGeometry y="30" width="180" height="24" as="geometry"/></mxCell><mxCell id="55" value="" style="endArrow=block;endSize=16;endFill=0;html=1;rounded=0;" parent="1" source="53" target="50" edge="1"><mxGeometry width="160" relative="1" as="geometry"><mxPoint x="425" y="180" as="sourcePoint"/><mxPoint x="425" y="118" as="targetPoint"/></mxGeometry></mxCell><mxCell id="56" value="SwapSelection" style="swimlane;fontStyle=1;align=center;verticalAlign=top;childLayout=stackLayout;horizontal=1;startSize=26;horizontalStack=0;resizeParent=1;resizeParentMax=0;resizeLast=0;collapsible=1;marginBottom=0;" parent="1" vertex="1"><mxGeometry x="410" y="620" width="210" height="100" as="geometry"/></mxCell><mxCell id="57" value="- selected: Letter" style="text;strokeColor=none;fillColor=none;align=left;verticalAlign=top;spacingLeft=4;spacingRight=4;overflow=hidden;rotatable=0;points=[[0,0.5],[1,0.5]];portConstraint=eastwest;fontStyle=0" parent="56" vertex="1"><mxGeometry y="26" width="210" height="26" as="geometry"/></mxCell><mxCell id="58" value="" style="line;strokeWidth=1;fillColor=none;align=left;verticalAlign=middle;spacingTop=-1;spacingLeft=3;spacingRight=3;rotatable=0;labelPosition=right;points=[];portConstraint=eastwest;" parent="56" vertex="1"><mxGeometry y="52" width="210" height="8" as="geometry"/></mxCell><mxCell id="59" value="+ SwapSelection(): void&#10;+ select(): void " style="text;strokeColor=none;fillColor=none;align=left;verticalAlign=top;spacingLeft=4;spacingRight=4;overflow=hidden;rotatable=0;points=[[0,0.5],[1,0.5]];portConstraint=eastwest;" parent="56" vertex="1"><mxGeometry y="60" width="210" height="40" as="geometry"/></mxCell><mxCell id="60" value="" style="endArrow=block;dashed=1;endFill=0;endSize=12;html=1;rounded=0;" parent="1" source="56" target="30" edge="1"><mxGeometry width="160" relative="1" as="geometry"><mxPoint x="612.8571428571429" y="510" as="sourcePoint"/><mxPoint x="550" y="422" as="targetPoint"/></mxGeometry></mxCell><mxCell id="61" value="ScrabbleModel" style="swimlane;fontStyle=1;align=center;verticalAlign=top;childLayout=stackLayout;horizontal=1;startSize=26;horizontalStack=0;resizeParent=1;resizeParentMax=0;resizeLast=0;collapsible=1;marginBottom=0;" parent="1" vertex="1"><mxGeometry x="350" y="89" width="270" height="88" as="geometry"/></mxCell><mxCell id="62" value="" style="line;strokeWidth=1;fillColor=none;align=left;verticalAlign=middle;spacingTop=-1;spacingLeft=3;spacingRight=3;rotatable=0;labelPosition=right;points=[];portConstraint=eastwest;" parent="61" vertex="1"><mxGeometry y="26" width="270" height="2" as="geometry"/></mxCell><mxCell id="63" value="+ modelListeners: List&lt;ScrabbleModelListener&gt;" style="text;strokeColor=none;fillColor=none;align=left;verticalAlign=top;spacingLeft=4;spacingRight=4;overflow=hidden;rotatable=0;points=[[0,0.5],[1,0.5]];portConstraint=eastwest;" parent="61" vertex="1"><mxGeometry y="28" width="270" height="22" as="geometry"/></mxCell><mxCell id="64" value="" style="line;strokeWidth=1;fillColor=none;align=left;verticalAlign=middle;spacingTop=-1;spacingLeft=3;spacingRight=3;rotatable=0;labelPosition=right;points=[];portConstraint=eastwest;" parent="61" vertex="1"><mxGeometry y="50" width="270" height="8" as="geometry"/></mxCell><mxCell id="65" value="&lt;span&gt;+ setSelected(Letter): void&lt;br&gt;&amp;nbsp;- notifyListeners(): void&lt;br&gt;&lt;/span&gt;" style="text;html=1;strokeColor=none;fillColor=none;align=left;verticalAlign=middle;whiteSpace=wrap;rounded=0;" parent="61" vertex="1"><mxGeometry y="58" width="270" height="30" as="geometry"/></mxCell><mxCell id="66" value="" style="endArrow=none;dashed=1;html=1;dashPattern=1 3;strokeWidth=2;rounded=0;" parent="1" source="68" target="61" edge="1"><mxGeometry width="50" height="50" relative="1" as="geometry"><mxPoint x="680" y="150" as="sourcePoint"/><mxPoint x="460" y="210" as="targetPoint"/></mxGeometry></mxCell><mxCell id="68" value="To discard, place, or swap (optional), external actors use the selected tiles in the model set by the HandTileController." style="shape=note;whiteSpace=wrap;html=1;backgroundOutline=1;darkOpacity=0.05;size=6;" parent="1" vertex="1"><mxGeometry x="670" y="90" width="130" height="90" as="geometry"/></mxCell><mxCell id="69" value="ScrabbleEvent" style="swimlane;fontStyle=1;align=center;verticalAlign=top;childLayout=stackLayout;horizontal=1;startSize=26;horizontalStack=0;resizeParent=1;resizeParentMax=0;resizeLast=0;collapsible=1;marginBottom=0;" vertex="1" parent="1"><mxGeometry x="10" y="729" width="270" height="100" as="geometry"/></mxCell><mxCell id="70" value="" style="line;strokeWidth=1;fillColor=none;align=left;verticalAlign=middle;spacingTop=-1;spacingLeft=3;spacingRight=3;rotatable=0;labelPosition=right;points=[];portConstraint=eastwest;" vertex="1" parent="69"><mxGeometry y="26" width="270" height="2" as="geometry"/></mxCell><mxCell id="71" value="- model: ScrabbleModel" style="text;strokeColor=none;fillColor=none;align=left;verticalAlign=top;spacingLeft=4;spacingRight=4;overflow=hidden;rotatable=0;points=[[0,0.5],[1,0.5]];portConstraint=eastwest;" vertex="1" parent="69"><mxGeometry y="28" width="270" height="22" as="geometry"/></mxCell><mxCell id="72" value="" style="line;strokeWidth=1;fillColor=none;align=left;verticalAlign=middle;spacingTop=-1;spacingLeft=3;spacingRight=3;rotatable=0;labelPosition=right;points=[];portConstraint=eastwest;" vertex="1" parent="69"><mxGeometry y="50" width="270" height="8" as="geometry"/></mxCell><mxCell id="73" value="&lt;span&gt;+ ScrabbleEvent(): void&lt;br&gt;+ getModel(): ScrabbleModel&lt;br&gt;&lt;/span&gt;" style="text;html=1;strokeColor=none;fillColor=none;align=left;verticalAlign=middle;whiteSpace=wrap;rounded=0;" vertex="1" parent="69"><mxGeometry y="58" width="270" height="42" as="geometry"/></mxCell><mxCell id="74" value="" style="endArrow=block;endSize=16;endFill=0;html=1;rounded=0;" edge="1" parent="1" source="69" target="75"><mxGeometry width="160" relative="1" as="geometry"><mxPoint x="134.5" y="692" as="sourcePoint"/><mxPoint x="145" y="680" as="targetPoint"/></mxGeometry></mxCell><mxCell id="75" value="AWTEvent" style="swimlane;fontStyle=1;align=center;verticalAlign=top;childLayout=stackLayout;horizontal=1;startSize=26;horizontalStack=0;resizeParent=1;resizeParentMax=0;resizeLast=0;collapsible=1;marginBottom=0;" vertex="1" parent="1"><mxGeometry x="10" y="660" width="270" height="36" as="geometry"/></mxCell><mxCell id="76" value="" style="line;strokeWidth=1;fillColor=none;align=left;verticalAlign=middle;spacingTop=-1;spacingLeft=3;spacingRight=3;rotatable=0;labelPosition=right;points=[];portConstraint=eastwest;" vertex="1" parent="75"><mxGeometry y="26" width="270" height="2" as="geometry"/></mxCell><mxCell id="77" value="" style="line;strokeWidth=1;fillColor=none;align=left;verticalAlign=middle;spacingTop=-1;spacingLeft=3;spacingRight=3;rotatable=0;labelPosition=right;points=[];portConstraint=eastwest;" vertex="1" parent="75"><mxGeometry y="28" width="270" height="8" as="geometry"/></mxCell></root></mxGraphModel></diagram></mxfile>